<?xml version="1.0" encoding="UTF-8"?>
<svg xmlns="http://www.w3.org/2000/svg" width="800" height="600" viewBox="0 0 800 600">
  <rect width="100%" height="100%" fill="#ffffff" />
  <line x1="40" y1="492.17391304347825" x2="170.48922046598295" y2="492.17391304347825" stroke="#1f2937" stroke-width="2" />
<line x1="170.48922046598295" y1="492.17391304347825" x2="175.6521739130435" y2="492.17391304347825" stroke="#1f2937" stroke-width="2" />
<line x1="170.48922046598292" y1="466.2179932830635" x2="170.48922046598295" y2="492.17391304347825" stroke="#1f2937" stroke-width="2" />
<line x1="40" y1="492.17391304347825" x2="175.6521739130435" y2="492.17391304347825" stroke="#1f2937" stroke-width="2" />
<line x1="107.82608695652175" y1="492.17391304347825" x2="40" y2="151.18914749059468" stroke="#1f2937" stroke-width="2" />
<line x1="40" y1="492.17391304347825" x2="170.48922046598292" y2="466.2179932830635" stroke="#1f2937" stroke-width="2" />
<line x1="40" y1="492.17391304347825" x2="40" y2="40" stroke="#1f2937" stroke-width="2" />
<line x1="175.6521739130435" y1="492.17391304347825" x2="175.6521739130434" y2="388.24768290816235" stroke="#1f2937" stroke-width="2" />
<line x1="40" y1="151.18914749059468" x2="175.6521739130435" y2="478.68246551685803" stroke="#1f2937" stroke-width="2" />
<line x1="170.48922046598292" y1="466.2179932830635" x2="175.6521739130435" y2="478.68246551685803" stroke="#1f2937" stroke-width="2" />
  <circle cx="107.82608695652175" cy="492.17391304347825" r="67.82608695652175" fill="none" stroke="#dc2626" stroke-width="2" />
  <g><circle cx="40" cy="492.17391304347825" r="4" fill="#111827" /><text x="48" y="484.17391304347825" font-size="16" font-family="Georgia, serif" fill="#111827">C</text></g>
<g><circle cx="175.6521739130435" cy="492.17391304347825" r="4" fill="#111827" /><text x="183.6521739130435" y="484.17391304347825" font-size="16" font-family="Georgia, serif" fill="#111827">D</text></g>
<g><circle cx="107.82608695652175" cy="492.17391304347825" r="4" fill="#111827" /><text x="115.82608695652175" y="484.17391304347825" font-size="16" font-family="Georgia, serif" fill="#111827">O</text></g>
<g><circle cx="170.48922046598292" cy="466.2179932830635" r="4" fill="#111827" /><text x="178.48922046598292" y="458.2179932830635" font-size="16" font-family="Georgia, serif" fill="#111827">E</text></g>
<g><circle cx="40" cy="40" r="4" fill="#111827" /><text x="48" y="32" font-size="16" font-family="Georgia, serif" fill="#111827">X</text></g>
<g><circle cx="40" cy="151.18914749059468" r="4" fill="#111827" /><text x="48" y="143.18914749059468" font-size="16" font-family="Georgia, serif" fill="#111827">A</text></g>
<g><circle cx="175.6521739130435" cy="478.68246551685803" r="4" fill="#111827" /><text x="183.6521739130435" y="470.68246551685803" font-size="16" font-family="Georgia, serif" fill="#111827">B</text></g>
<g><circle cx="170.48922046598295" cy="492.17391304347825" r="4" fill="#111827" /><text x="178.48922046598295" y="484.17391304347825" font-size="16" font-family="Georgia, serif" fill="#111827">H</text></g>
</svg>