<?xml version="1.0" encoding="UTF-8"?>
<svg xmlns="http://www.w3.org/2000/svg" width="800" height="600" viewBox="0 0 800 600">
  <rect width="100%" height="100%" fill="#ffffff" />
  <line x1="40" y1="450.99685640830285" x2="97.226650385641" y2="450.99685640830285" stroke="#1f2937" stroke-width="2" />
<line x1="97.226650385641" y1="450.99685640830285" x2="203.50471538754576" y2="450.99685640830285" stroke="#1f2937" stroke-width="2" />
<line x1="197.28168770159124" y1="419.7115835621113" x2="97.226650385641" y2="450.99685640830285" stroke="#1f2937" stroke-width="2" />
<line x1="40" y1="450.99685640830285" x2="203.50471538754576" y2="450.99685640830285" stroke="#1f2937" stroke-width="2" />
<line x1="121.75235769377288" y1="450.99685640830285" x2="40" y2="40" stroke="#1f2937" stroke-width="2" />
<line x1="40" y1="450.99685640830285" x2="197.28168770159124" y2="419.7115835621113" stroke="#1f2937" stroke-width="2" />
<line x1="40" y1="450.99685640830285" x2="40" y2="560" stroke="#1f2937" stroke-width="2" />
<line x1="203.50471538754576" y1="450.99685640830285" x2="203.50471538754576" y2="434.7353014005659" stroke="#1f2937" stroke-width="2" />
<line x1="40" y1="40" x2="203.50471538754576" y2="434.7353014005659" stroke="#1f2937" stroke-width="2" />
<line x1="197.28168770159124" y1="419.7115835621113" x2="203.50471538754576" y2="434.7353014005659" stroke="#1f2937" stroke-width="2" />
  <circle cx="121.75235769377288" cy="450.99685640830285" r="81.75235769377288" fill="none" stroke="#dc2626" stroke-width="2" />
  <g><circle cx="40" cy="450.99685640830285" r="4" fill="#111827" /><text x="48" y="442.99685640830285" font-size="16" font-family="Georgia, serif" fill="#111827">C</text></g>
<g><circle cx="203.50471538754576" cy="450.99685640830285" r="4" fill="#111827" /><text x="211.50471538754576" y="442.99685640830285" font-size="16" font-family="Georgia, serif" fill="#111827">D</text></g>
<g><circle cx="121.75235769377288" cy="450.99685640830285" r="4" fill="#111827" /><text x="129.75235769377286" y="442.99685640830285" font-size="16" font-family="Georgia, serif" fill="#111827">O</text></g>
<g><circle cx="197.28168770159124" cy="419.7115835621113" r="4" fill="#111827" /><text x="205.28168770159124" y="411.7115835621113" font-size="16" font-family="Georgia, serif" fill="#111827">E</text></g>
<g><circle cx="40" cy="560" r="4" fill="#111827" /><text x="48" y="552" font-size="16" font-family="Georgia, serif" fill="#111827">X</text></g>
<g><circle cx="40" cy="40" r="4" fill="#111827" /><text x="48" y="32" font-size="16" font-family="Georgia, serif" fill="#111827">A</text></g>
<g><circle cx="203.50471538754576" cy="434.7353014005659" r="4" fill="#111827" /><text x="211.50471538754576" y="426.7353014005659" font-size="16" font-family="Georgia, serif" fill="#111827">B</text></g>
<g><circle cx="97.226650385641" cy="450.99685640830285" r="4" fill="#111827" /><text x="105.226650385641" y="442.99685640830285" font-size="16" font-family="Georgia, serif" fill="#111827">H</text></g>
<g><circle cx="203.50471538754576" cy="450.99685640830285" r="4" fill="#111827" /><text x="211.50471538754576" y="442.99685640830285" font-size="16" font-family="Georgia, serif" fill="#111827">L</text></g>
<g><circle cx="40" cy="450.99685640830285" r="4" fill="#111827" /><text x="48" y="442.99685640830285" font-size="16" font-family="Georgia, serif" fill="#111827">K</text></g>
</svg>
